#!OML:ASF E:/inclinewalkrobotboard/Project1/Captureday1/Session1/subject1.ASF
:FULLY-SPECIFIED
:DEGREES
113
root 0 0 0 2.671630174069226 -4.190613727510403 2.3245319865786054
lowerback 12.01761797429605 1.0949322403468478 -0.2608768862920984
upperback -4.170379202096609 1.3889591108430235 -0.7801961586518907
thorax -11.18600471918019 0.6396108106137195 -0.9794447397414556
lowerneck -7.005473346932212 1.36347189964918 4.295943045591131
upperneck 18.944113231650412 2.811258182241339 -8.111520221542703
head 7.085283947450539 0.9728492172988487 -3.1437595470188606
rclavicle -1.4580655457236965E-15 -1.1537975030323429E-15
rhumerus 17.989806725611025 14.063185816440049 -51.759116888513645
rradius 69.35452046050291
rwrist 23.32836960212341
rhand -32.98104096514501 -49.097433734257244
rfingers 7.125019999999963
rthumb -6.249194256531947 -79.14195540013908
lclavicle 7.74054325011702E-16 7.539025472025684E-16
lhumerus 18.00069004387087 -14.023522302595822 49.52008588308533
lradius 67.47830056397203
lwrist -18.037108468753328
lhand -43.99342480212186 -60.28505042931724
lfingers 7.125019999999957
lthumb -16.824197903602034 -30.846664265334763
rfemur -27.393800466035763 0.6642350781959103 18.996458423872856
rtibia 40.018673296359175
rfoot -29.12562961322677 -17.368676993610812
rtoes -18.144203777165437
lfemur -24.09019182797023 1.7625258955618084 -16.087002661662016
ltibia 38.11253374732398
lfoot -30.47696889539468 7.1004385286344975
ltoes -17.29460027799437
114
root 0 0 0 2.8136175379982 -4.255611243102813 2.2443982827933024
lowerback 11.910024810105872 1.1512302236173164 -0.18085074517252653
upperback -4.191720696226791 1.4706067250407577 -0.7964168295064952
thorax -11.135494932821546 0.6770458849020702 -1.051143255754009
lowerneck -6.9870995873637 1.3287496825118257 4.273933406702421
upperneck 18.93642982919997 2.7572629934262665 -8.045080162525869
head 7.080639551210854 0.9524141790515811 -3.1227342289372757
rclavicle -1.42889244086407E-15 -8.523402080984249E-16
rhumerus 17.97624557159051 14.079285893418577 -51.81737523890389
rradius 69.34117274836942
rwrist 23.274916355564805
rhand -32.96442064439256 -49.01983464995895
rfingers 7.125019999999963
rthumb -6.232190926045634 -79.06465709588986
lclavicle 8.828735681724834E-16 9.575542407440027E-16
lhumerus 17.870091750225733 -13.904531096486714 49.53352523922098
lradius 67.35568705186442
lwrist -18.061922189479642
lhand -43.955948784193325 -60.221687694409816
lfingers 7.125019999999957
lthumb -16.788042140924734 -30.777743106099823
rfemur -25.352099391445833 1.6241138196201081 19.831816984292864
rtibia 34.36481984243098
rfoot -29.953826733273047 -16.98121215171332
rtoes -19.97214246361263
lfemur -22.48877313085164 0.7669028515500219 -16.08555408477487
ltibia 32.994882403009704
lfoot -30.174944605478334 7.295605838287643
ltoes -18.647015391216073
115
root 0 0 0 2.8655993152606913 -4.257187279276326 2.2123117343021463
lowerback 11.832309372569355 1.1698175577926468 -0.153060121300435
upperback -4.204829434695971 1.4964719779451428 -0.8029539539758571
thorax -11.098758996573789 0.6887763548843686 -1.0753630837943589
lowerneck -6.973298627976418 1.3008528797309549 4.262872471341584
upperneck 19.024909673447713 2.715502970969026 -8.020195502864775
head 7.108816098431607 0.9340795386431143 -3.1170902567447767
rclavicle -1.2921973985512696E-15 -6.981665703618414E-16
rhumerus 17.705891877721584 13.74516373508929 -51.66231365512617
rradius 69.12230736488088
rwrist 23.458859907536496
rhand -32.9407335648568 -48.969123686351594
rfingers 7.125019999999962
rthumb -6.207051330690891 -79.02061656494729
lclavicle 9.613475260058444E-16 1.0107064895941284E-15
lhumerus 17.65664232777644 -13.628364418210525 49.50036707449642
lradius 67.13170573303495
lwrist -18.172894933228775
lhand -43.91336762685117 -60.27471726878617
lfingers 7.125019999999956
lthumb -16.747842842459832 -30.822972548599967
rfemur -24.208261852522543 2.10583290401868 19.952297704049947
rtibia 31.90293847812639
rfoot -28.738732798203017 -16.350284035691985
rtoes -20.93228731391464
lfemur -20.98411764137803 0.09060164485672795 -15.82869609041449
ltibia 30.825040398147472
lfoot -27.96632070307312 6.309860884662371
ltoes -19.46374252823394
116
root 0 0 0 2.8327448004756577 -4.227868050929187 2.2358147477388157
lowerback 11.794293374389033 1.1631189063294474 -0.17544390008706634
upperback -4.213729527787248 1.483262796136502 -0.8088136837251608
thorax -11.085793271548422 0.6828277547214261 -1.0655748013978767
lowerneck -6.947427299820259 1.2836641005587588 4.265120369832557
upperneck 19.188341394536227 2.6915057060878205 -8.03827189405224
head 7.160029933470787 0.9208160332597074 -3.1267991611736026
rclavicle -1.0422448224504113E-15 -7.240039173958865E-16
rhumerus 17.281519179838597 13.189329518530434 -51.35507788229842
rradius 68.78031920154466
rwrist 23.80912192369625
rhand -32.91826479885806 -48.96041492311401
rfingers 7.125019999999962
rthumb -6.183000108096252 -79.02635175569013
lclavicle 1.026221490881943E-15 8.880354072498471E-16
lhumerus 17.429697747451947 -13.268488046873893 49.421412011612205
lradius 66.87192171130602
lwrist -18.348008298060627
lhand -43.88148991120806 -60.44965002830153
lfingers 7.125019999999955
lthumb -16.71851245670365 -30.992410837366467
rfemur -24.013470226853904 1.9028177511904718 19.33691954992656
rtibia 33.829522440994815
rfoot -25.831192600427727 -15.598392833139822
rtoes -20.90591467386976
lfemur -19.56339484431867 -0.1330421134606256 -15.467570651917825
ltibia 31.78939172910721
lfoot -24.91185113388807 4.456331174578236
ltoes -20.122690866601076
117
root 0 0 0 2.70727875928907 -4.184864540888451 2.331210080973059
lowerback 11.80591987383701 1.1375142267174474 -0.25967904661541663
upperback -4.215883014260248 1.437828558251646 -0.8204751714064625
thorax -11.10063351895722 0.6629896943138418 -1.0228508890539572
lowerneck -6.909346930140263 1.282683892692319 4.276659660044973
upperneck 19.378520343781673 2.6926018761385118 -8.08731639095926
head 7.218150889232396 0.9168607845695934 -3.1461229973686846
rclavicle -7.31062325574111E-16 -9.022025490857746E-16
rhumerus 16.806245503135223 12.547549951751952 -50.97122059780439
rradius 68.3980161537146
rwrist 24.240263782103455
rhand -32.90202511056448 -48.99530390088961
rfingers 7.125019999999962
rthumb -6.165549591591361 -79.08188115222254
lclavicle 1.0683187938742304E-15 6.421556128202884E-16
lhumerus 17.253152101196854 -12.91370912996215 49.310556575266524
lradius 66.64431409029528
lwrist -18.547770185128876
lhand -43.87111252184729 -60.71678544280341
lfingers 7.125019999999955
lthumb -16.710093154282653 -31.25776875357433
rfemur -25.275102823010393 0.9126283910357129 17.899841085979098
rtibia 40.62521671820662
rfoot -21.226496505135987 -14.794538103724578
rtoes -19.538536604188053
lfemur -18.254595997344175 0.232213936336635 -15.146378577464377
ltibia 36.411381361965766
lfoot -21.509533578070414 1.7698988199586418
ltoes -20.701445555291976
118
root 0 0 0 2.3100178429971026 -4.051657085036865 2.6246597313121653
lowerback 11.942625205749474 1.043679919060555 -0.5313669718899589
upperback -4.185016447636807 1.2799242807455327 -0.8372221938214369
thorax -11.171071192533542 0.5941245800962425 -0.8632679314289273
lowerneck -6.882740582354623 1.3243622268701005 4.299118333812988
upperneck 19.58055457342694 2.7584420253615782 -8.185606727050404
head 7.282039331671815 0.9381335678438735 -3.1782852964697517
rclavicle -3.3591183491971337E-16 -1.3841226776706227E-15
rhumerus 16.158798658332167 11.640471459992982 -50.382061728677954
rradius 67.87816504287069
rwrist 24.8927842701832
rhand -32.89433261596856 -49.117870920783346
rfingers 7.125019999999963
rthumb -6.156884428319467 -79.24064203717057
lclavicle 1.0284819040853854E-15 1.5419716047205214E-16
lhumerus 17.17709649207076 -12.559605166053021 49.12905282789056
lradius 66.47935106305123
lwrist -18.80385894521693
lhand -43.907748511618195 -61.1927552409337
lfingers 7.125019999999955
lthumb -16.747264752673697 -31.736669885230388
rfemur -29.763864957648437 -1.2581902347106175 15.220693282911054
rtibia 54.560098148374486
rfoot -13.083150727203577 -13.55122239693321
rtoes -14.913291941444909
lfemur -16.599936876433823 1.9886358433483204 -14.931656258849209
ltibia 51.12437093705903
lfoot -15.37583240507344 -4.143312122835961
ltoes -20.695831881879347
